<?xml version="1.0" encoding="UTF-8"?>
<svg width="22px" height="41px" viewBox="0 0 22 41" version="1.1" xmlns="http://www.w3.org/2000/svg" xmlns:xlink="http://www.w3.org/1999/xlink">
    <!-- Generator: Sketch 54.1 (76490) - https://sketchapp.com -->
    <title>Fill 1</title>
    <desc>Created with Sketch.</desc>
    <g id="Page-1" stroke="none" stroke-width="1" fill="none" fill-rule="evenodd">
        <g id="Fitbit-SP2-PDP-1440---core-color" transform="translate(-724.000000, -789.000000)" fill="#FAFAFA">
            <g id="VISUALIZER-HERO" transform="translate(0.000000, 75.000000)">
                <g id="Product">
                    <g id="arrows" transform="translate(724.000000, 714.000000)">
                        <path d="M0.199085159,19.7809418 C0.214343511,19.7533938 0.22669551,19.7243958 0.244133626,19.6975727 C0.297901151,19.6171035 0.358934558,19.5417088 0.427960434,19.4728387 L19.5190647,0.424819757 C19.8024341,0.141364936 20.1751738,0 20.5464604,0 C20.9184735,0 21.2904866,0.141364936 21.573856,0.424819757 C22.142048,0.991004451 22.142048,1.90878912 21.573856,2.47497381 L4.96187063,19.0501938 L3.5620751,20.5000906 L4.96187063,21.9499874 L21.573856,38.5252074 C22.142048,39.0906672 22.142048,40.0091768 21.573856,40.5753615 C21.0071173,41.1415462 20.08653,41.1415462 19.5190647,40.5753615 L0.427960434,21.5266175 C0.358934558,21.4584724 0.297901151,21.3830778 0.244133626,21.3026085 C0.22669551,21.2757854 0.214343511,21.2467875 0.199085159,21.2192394 C0.16711528,21.1648683 0.1351454,21.1112221 0.110441402,21.0525013 C0.096636227,21.0177038 0.0886437571,20.9814564 0.0777449345,20.9466588 C0.0595802302,20.8915628 0.0399623495,20.8379166 0.0283369388,20.7806456 C0.0181647043,20.7291743 0.0174381162,20.676978 0.0130785871,20.6247817 C0.00944564625,20.5827347 0,20.5428626 0,20.5000906 C0,20.4573187 0.00944564625,20.4174465 0.0130785871,20.3753995 C0.0174381162,20.3232032 0.0181647043,20.2710069 0.0283369388,20.2195356 C0.0399623495,20.1622647 0.0595802302,20.1078935 0.0777449345,20.0535224 C0.0886437571,20.0179999 0.096636227,19.9824775 0.110441402,19.9476799 C0.1351454,19.8889591 0.16711528,19.8353129 0.199085159,19.7809418 Z" id="Fill-1"></path>
                    </g>
                </g>
            </g>
        </g>
    </g>
</svg>