<?xml version="1.0" encoding="UTF-8"?>
<svg width="23px" height="42px" viewBox="0 0 23 42" version="1.1" xmlns="http://www.w3.org/2000/svg" xmlns:xlink="http://www.w3.org/1999/xlink">
    <!-- Generator: Sketch 54.1 (76490) - https://sketchapp.com -->
    <title>Fill 1</title>
    <desc>Created with Sketch.</desc>
    <g id="Page-1" stroke="none" stroke-width="1" fill="none" fill-rule="evenodd">
        <g id="Fitbit-SP2-PDP-1440---core-color" transform="translate(-841.000000, -789.000000)" fill="#FAFAFA">
            <g id="VISUALIZER-HERO" transform="translate(0.000000, 75.000000)">
                <g id="Product">
                    <g id="arrows" transform="translate(724.000000, 714.000000)">
                        <path d="M117.200087,19.9254134 C117.215422,19.8976642 117.227836,19.8684545 117.245362,19.8414355 C117.2994,19.7603785 117.36074,19.6844332 117.430113,19.6150601 L136.617251,0.427922461 C136.902046,0.142397406 137.27666,0 137.649815,0 C138.023699,0 138.397584,0.142397406 138.682378,0.427922461 C139.253428,0.998242329 139.253428,1.9227301 138.682378,2.49304997 L121.98683,19.1893284 L120.579993,20.6498146 L121.98683,22.1103008 L138.682378,38.8065792 C139.253428,39.3761689 139.253428,40.3013869 138.682378,40.8717068 C138.112789,41.4420266 137.187571,41.4420266 136.617251,40.8717068 L117.430113,21.6838388 C117.36074,21.615196 117.2994,21.5392507 117.245362,21.4581937 C117.227836,21.4311747 117.215422,21.401965 117.200087,21.3742158 C117.167956,21.3194475 117.135825,21.2654095 117.110997,21.2062599 C117.097122,21.1712082 117.08909,21.134696 117.078136,21.0996444 C117.05988,21.0441459 117.040163,20.9901079 117.028479,20.9324187 C117.018256,20.8805714 117.017526,20.8279939 117.013144,20.7754164 C117.009493,20.7330623 117,20.692899 117,20.6498146 C117,20.6067303 117.009493,20.5665669 117.013144,20.5242128 C117.017526,20.4716353 117.018256,20.4190578 117.028479,20.3672105 C117.040163,20.3095213 117.05988,20.2547531 117.078136,20.1999849 C117.08909,20.1642029 117.097122,20.128421 117.110997,20.0933694 C117.135825,20.0342197 117.167956,19.9801817 117.200087,19.9254134 Z" id="Fill-1" transform="translate(128.055333, 20.649723) rotate(-180.000000) translate(-128.055333, -20.649723) "></path>
                    </g>
                </g>
            </g>
        </g>
    </g>
</svg>