<?xml version="1.0" encoding="UTF-8"?>
<svg width="37px" height="25px" viewBox="0 0 37 25" version="1.1" xmlns="http://www.w3.org/2000/svg" xmlns:xlink="http://www.w3.org/1999/xlink">
    <!-- Generator: Sketch 55.2 (78181) - https://sketchapp.com -->
    <title>USA flag</title>
    <desc>Created with Sketch.</desc>
    <defs>
        <polygon id="path-1" points="0 0.0404816327 36.9279402 0.0404816327 36.9279402 24.6856849 0 24.6856849"></polygon>
        <polygon id="path-3" points="0 25 37 25 37 0 0 0"></polygon>
    </defs>
    <g id="Symbols" stroke="none" stroke-width="1" fill="none" fill-rule="evenodd">
        <g id="Large/Footer" transform="translate(-1162.000000, -600.000000)">
            <g id="Footer">
                <g id="Bottom" transform="translate(81.000000, 600.000000)">
                    <g id="language" transform="translate(1081.000000, 0.000000)">
                        <g id="USA-flag">
                            <g id="Group-3">
                                <mask id="mask-2" fill="white">
                                    <use xlink:href="#path-1"></use>
                                </mask>
                                <g id="Clip-2"></g>
                                <path d="M36.2911507,24.6856849 L0.636710136,24.6856849 C0.285101949,24.6856849 -7.21247563e-06,24.3953339 -7.21247563e-06,24.0371706 L-7.21247563e-06,0.68904 C-7.21247563e-06,0.330876735 0.285101949,0.0404522449 0.636710136,0.0404522449 L36.2912228,0.0404522449 C36.642831,0.0404522449 36.9279402,0.330876735 36.9279402,0.68904 L36.9279402,24.0371706 C36.9279402,24.3954073 36.6427589,24.6856849 36.2911507,24.6856849" id="Fill-1" fill="#F5F5F5" mask="url(#mask-2)"></path>
                            </g>
                            <path d="M37,2 L0,2 L0,0.684208487 C0,0.306374734 0.285665458,0 0.637959691,0 L36.3620403,0 C36.7143345,0 37,0.306374734 37,0.684208487 L37,2 Z" id="Fill-4" fill="#FF4B55"></path>
                            <mask id="mask-4" fill="white">
                                <use xlink:href="#path-3"></use>
                            </mask>
                            <g id="Clip-7"></g>
                            <polygon id="Fill-6" fill="#FF4B55" mask="url(#mask-4)" points="0 9.66666667 37 9.66666667 37 7.66666667 0 7.66666667"></polygon>
                            <polygon id="Fill-8" fill="#FF4B55" mask="url(#mask-4)" points="0 5.83333333 37 5.83333333 37 3.83333333 0 3.83333333"></polygon>
                            <path d="M37,13.5 L0.637960937,13.5 C0.285666016,13.5 0,13.1936253 0,12.8157915 L0,11.5 L37,11.5 L37,13.5 Z" id="Fill-9" fill="#FF4B55" mask="url(#mask-4)"></path>
                            <polygon id="Fill-10" fill="#FF4B55" mask="url(#mask-4)" points="0 21.1666667 37 21.1666667 37 19.1666667 0 19.1666667"></polygon>
                            <path d="M36.3620391,25 L0.637960938,25 C0.285666016,25 0,24.6936909 0,24.3158425 L0,23 L37,23 L37,24.31592 C37,24.6937684 36.714334,25 36.3620391,25" id="Fill-11" fill="#FF4B55" mask="url(#mask-4)"></path>
                            <polygon id="Fill-12" fill="#FF4B55" mask="url(#mask-4)" points="0 17.3333333 37 17.3333333 37 15.3333333 0 15.3333333"></polygon>
                            <path d="M16.3702726,0 L0.629656046,0 C0.281947253,0 0,0.284434602 0,0.635299654 L0,12.3646284 C0,12.7154934 0.281947253,13 0.629656046,13 L16.370344,13 C16.7180527,13 17,12.7154934 17,12.3646284 L17,0.635299654 C17,0.284434602 16.7179814,0 16.3702726,0" id="Fill-13" fill="#41479B" mask="url(#mask-4)"></path>
                            <path d="M1.5404725,1.03055721 L1.64070478,1.34518973 L1.95755985,1.34771323 C1.99859661,1.34808907 2.01557556,1.40285446 1.98259227,1.42835795 L1.72770271,1.62540596 L1.82331835,1.94159553 C1.83573197,1.9825085 1.7911558,2.01644156 1.75776213,1.9914213 L1.5,1.79861492 L1.24223787,1.99147499 C1.2088442,2.01644156 1.16437062,1.98256219 1.17668165,1.94164922 L1.27229729,1.62545965 L1.01740773,1.42841164 C0.984424436,1.40285446 1.00140339,1.34814276 1.04244015,1.34776692 L1.35929522,1.34524342 L1.4595275,1.0306109 C1.47245408,0.989805319 1.52744333,0.989805319 1.5404725,1.03055721" id="Fill-14" fill="#F5F5F5" mask="url(#mask-4)"></path>
                            <path d="M1.5404725,3.28051817 L1.64070478,3.59516336 L1.95755985,3.59768696 C1.99859661,3.59806282 2.01557556,3.65283041 1.98259227,3.67833493 L1.72770271,3.87539087 L1.82331835,4.19159318 C1.83573197,4.23250779 1.7911558,4.26644222 1.75776213,4.24142095 L1.5,4.04860681 L1.24223787,4.24147464 C1.2088442,4.26644222 1.16437062,4.23256149 1.17668165,4.19164687 L1.27229729,3.87544457 L1.01740773,3.67838862 C0.984424436,3.65283041 1.00140339,3.59811651 1.04244015,3.59774066 L1.35929522,3.59521705 L1.4595275,3.28057186 C1.47245408,3.23981833 1.52744333,3.23981833 1.5404725,3.28051817" id="Fill-15" fill="#F5F5F5" mask="url(#mask-4)"></path>
                            <path d="M1.5404725,5.53051817 L1.64070478,5.84516336 L1.95755985,5.84768696 C1.99859661,5.84806282 2.01557556,5.90283041 1.98259227,5.92833493 L1.72770271,6.12539087 L1.82331835,6.44159318 C1.83573197,6.48250779 1.7911558,6.51644222 1.75776213,6.49142095 L1.5,6.29860681 L1.24223787,6.49147464 C1.2088442,6.51644222 1.16437062,6.48256149 1.17668165,6.44164687 L1.27229729,6.12544457 L1.01740773,5.92838862 C0.984424436,5.90283041 1.00140339,5.84811651 1.04244015,5.84774066 L1.35929522,5.84521705 L1.4595275,5.53057186 C1.47245408,5.48981833 1.52744333,5.48981833 1.5404725,5.53051817" id="Fill-16" fill="#F5F5F5" mask="url(#mask-4)"></path>
                            <path d="M1.5404725,7.78055721 L1.64070478,8.09518973 L1.95755985,8.09771323 C1.99859661,8.09808907 2.01557556,8.15285446 1.98259227,8.17835795 L1.72770271,8.37540596 L1.82331835,8.69159553 C1.83573197,8.7325085 1.7911558,8.76644156 1.75776213,8.7414213 L1.5,8.54861492 L1.24223787,8.74147499 C1.2088442,8.76644156 1.16437062,8.73256219 1.17668165,8.69164922 L1.27229729,8.37545965 L1.01740773,8.17841164 C0.984424436,8.15285446 1.00140339,8.09814276 1.04244015,8.09776692 L1.35929522,8.09524342 L1.4595275,7.7806109 C1.47245408,7.73980532 1.52744333,7.73980532 1.5404725,7.78055721" id="Fill-17" fill="#F5F5F5" mask="url(#mask-4)"></path>
                            <path d="M1.5404725,10.0305962 L1.64070478,10.3452161 L1.95755985,10.3477395 C1.99859661,10.3481153 2.01557556,10.4028785 1.98259227,10.428381 L1.72770271,10.625421 L1.82331835,10.9415979 C1.83573197,10.9825092 1.7911558,11.0164409 1.75776213,10.9914216 L1.5,10.798623 L1.24223787,10.9914753 C1.2088442,11.0164409 1.16437062,10.9825629 1.17668165,10.9416516 L1.27229729,10.6254747 L1.01740773,10.4284347 C0.984424436,10.4028785 1.00140339,10.348169 1.04244015,10.3477932 L1.35929522,10.3452698 L1.4595275,10.0306499 C1.47245408,9.98979231 1.52744333,9.98979231 1.5404725,10.0305962" id="Fill-18" fill="#F5F5F5" mask="url(#mask-4)"></path>
                            <path d="M3.5404725,1.03055721 L3.64070478,1.34518973 L3.95755985,1.34771323 C3.99859661,1.34808907 4.01557556,1.40285446 3.98259227,1.42835795 L3.72770271,1.62540596 L3.82331835,1.94159553 C3.83573197,1.9825085 3.7911558,2.01644156 3.75776213,1.9914213 L3.5,1.79861492 L3.24223787,1.99147499 C3.2088442,2.01644156 3.16437062,1.98256219 3.17668165,1.94164922 L3.27229729,1.62545965 L3.01740773,1.42841164 C2.98442444,1.40285446 3.00140339,1.34814276 3.04244015,1.34776692 L3.35929522,1.34524342 L3.4595275,1.0306109 C3.47245408,0.989805319 3.52744333,0.989805319 3.5404725,1.03055721" id="Fill-14" fill="#F5F5F5" mask="url(#mask-4)"></path>
                            <path d="M3.5404725,3.28051817 L3.64070478,3.59516336 L3.95755985,3.59768696 C3.99859661,3.59806282 4.01557556,3.65283041 3.98259227,3.67833493 L3.72770271,3.87539087 L3.82331835,4.19159318 C3.83573197,4.23250779 3.7911558,4.26644222 3.75776213,4.24142095 L3.5,4.04860681 L3.24223787,4.24147464 C3.2088442,4.26644222 3.16437062,4.23256149 3.17668165,4.19164687 L3.27229729,3.87544457 L3.01740773,3.67838862 C2.98442444,3.65283041 3.00140339,3.59811651 3.04244015,3.59774066 L3.35929522,3.59521705 L3.4595275,3.28057186 C3.47245408,3.23981833 3.52744333,3.23981833 3.5404725,3.28051817" id="Fill-15" fill="#F5F5F5" mask="url(#mask-4)"></path>
                            <path d="M3.5404725,5.53051817 L3.64070478,5.84516336 L3.95755985,5.84768696 C3.99859661,5.84806282 4.01557556,5.90283041 3.98259227,5.92833493 L3.72770271,6.12539087 L3.82331835,6.44159318 C3.83573197,6.48250779 3.7911558,6.51644222 3.75776213,6.49142095 L3.5,6.29860681 L3.24223787,6.49147464 C3.2088442,6.51644222 3.16437062,6.48256149 3.17668165,6.44164687 L3.27229729,6.12544457 L3.01740773,5.92838862 C2.98442444,5.90283041 3.00140339,5.84811651 3.04244015,5.84774066 L3.35929522,5.84521705 L3.4595275,5.53057186 C3.47245408,5.48981833 3.52744333,5.48981833 3.5404725,5.53051817" id="Fill-16" fill="#F5F5F5" mask="url(#mask-4)"></path>
                            <path d="M3.5404725,7.78055721 L3.64070478,8.09518973 L3.95755985,8.09771323 C3.99859661,8.09808907 4.01557556,8.15285446 3.98259227,8.17835795 L3.72770271,8.37540596 L3.82331835,8.69159553 C3.83573197,8.7325085 3.7911558,8.76644156 3.75776213,8.7414213 L3.5,8.54861492 L3.24223787,8.74147499 C3.2088442,8.76644156 3.16437062,8.73256219 3.17668165,8.69164922 L3.27229729,8.37545965 L3.01740773,8.17841164 C2.98442444,8.15285446 3.00140339,8.09814276 3.04244015,8.09776692 L3.35929522,8.09524342 L3.4595275,7.7806109 C3.47245408,7.73980532 3.52744333,7.73980532 3.5404725,7.78055721" id="Fill-17" fill="#F5F5F5" mask="url(#mask-4)"></path>
                            <path d="M3.5404725,10.0305962 L3.64070478,10.3452161 L3.95755985,10.3477395 C3.99859661,10.3481153 4.01557556,10.4028785 3.98259227,10.428381 L3.72770271,10.625421 L3.82331835,10.9415979 C3.83573197,10.9825092 3.7911558,11.0164409 3.75776213,10.9914216 L3.5,10.798623 L3.24223787,10.9914753 C3.2088442,11.0164409 3.16437062,10.9825629 3.17668165,10.9416516 L3.27229729,10.6254747 L3.01740773,10.4284347 C2.98442444,10.4028785 3.00140339,10.348169 3.04244015,10.3477932 L3.35929522,10.3452698 L3.4595275,10.0306499 C3.47245408,9.98979231 3.52744333,9.98979231 3.5404725,10.0305962" id="Fill-18" fill="#F5F5F5" mask="url(#mask-4)"></path>
                            <path d="M5.5404725,1.03055721 L5.64070478,1.34518973 L5.95755985,1.34771323 C5.99859661,1.34808907 6.01557556,1.40285446 5.98259227,1.42835795 L5.72770271,1.62540596 L5.82331835,1.94159553 C5.83573197,1.9825085 5.7911558,2.01644156 5.75776213,1.9914213 L5.5,1.79861492 L5.24223787,1.99147499 C5.2088442,2.01644156 5.16437062,1.98256219 5.17668165,1.94164922 L5.27229729,1.62545965 L5.01740773,1.42841164 C4.98442444,1.40285446 5.00140339,1.34814276 5.04244015,1.34776692 L5.35929522,1.34524342 L5.4595275,1.0306109 C5.47245408,0.989805319 5.52744333,0.989805319 5.5404725,1.03055721" id="Fill-14" fill="#F5F5F5" mask="url(#mask-4)"></path>
                            <path d="M5.5404725,3.28051817 L5.64070478,3.59516336 L5.95755985,3.59768696 C5.99859661,3.59806282 6.01557556,3.65283041 5.98259227,3.67833493 L5.72770271,3.87539087 L5.82331835,4.19159318 C5.83573197,4.23250779 5.7911558,4.26644222 5.75776213,4.24142095 L5.5,4.04860681 L5.24223787,4.24147464 C5.2088442,4.26644222 5.16437062,4.23256149 5.17668165,4.19164687 L5.27229729,3.87544457 L5.01740773,3.67838862 C4.98442444,3.65283041 5.00140339,3.59811651 5.04244015,3.59774066 L5.35929522,3.59521705 L5.4595275,3.28057186 C5.47245408,3.23981833 5.52744333,3.23981833 5.5404725,3.28051817" id="Fill-15" fill="#F5F5F5" mask="url(#mask-4)"></path>
                            <path d="M5.5404725,5.53051817 L5.64070478,5.84516336 L5.95755985,5.84768696 C5.99859661,5.84806282 6.01557556,5.90283041 5.98259227,5.92833493 L5.72770271,6.12539087 L5.82331835,6.44159318 C5.83573197,6.48250779 5.7911558,6.51644222 5.75776213,6.49142095 L5.5,6.29860681 L5.24223787,6.49147464 C5.2088442,6.51644222 5.16437062,6.48256149 5.17668165,6.44164687 L5.27229729,6.12544457 L5.01740773,5.92838862 C4.98442444,5.90283041 5.00140339,5.84811651 5.04244015,5.84774066 L5.35929522,5.84521705 L5.4595275,5.53057186 C5.47245408,5.48981833 5.52744333,5.48981833 5.5404725,5.53051817" id="Fill-16" fill="#F5F5F5" mask="url(#mask-4)"></path>
                            <path d="M5.5404725,7.78055721 L5.64070478,8.09518973 L5.95755985,8.09771323 C5.99859661,8.09808907 6.01557556,8.15285446 5.98259227,8.17835795 L5.72770271,8.37540596 L5.82331835,8.69159553 C5.83573197,8.7325085 5.7911558,8.76644156 5.75776213,8.7414213 L5.5,8.54861492 L5.24223787,8.74147499 C5.2088442,8.76644156 5.16437062,8.73256219 5.17668165,8.69164922 L5.27229729,8.37545965 L5.01740773,8.17841164 C4.98442444,8.15285446 5.00140339,8.09814276 5.04244015,8.09776692 L5.35929522,8.09524342 L5.4595275,7.7806109 C5.47245408,7.73980532 5.52744333,7.73980532 5.5404725,7.78055721" id="Fill-17" fill="#F5F5F5" mask="url(#mask-4)"></path>
                            <path d="M5.5404725,10.0305962 L5.64070478,10.3452161 L5.95755985,10.3477395 C5.99859661,10.3481153 6.01557556,10.4028785 5.98259227,10.428381 L5.72770271,10.625421 L5.82331835,10.9415979 C5.83573197,10.9825092 5.7911558,11.0164409 5.75776213,10.9914216 L5.5,10.798623 L5.24223787,10.9914753 C5.2088442,11.0164409 5.16437062,10.9825629 5.17668165,10.9416516 L5.27229729,10.6254747 L5.01740773,10.4284347 C4.98442444,10.4028785 5.00140339,10.348169 5.04244015,10.3477932 L5.35929522,10.3452698 L5.4595275,10.0306499 C5.47245408,9.98979231 5.52744333,9.98979231 5.5404725,10.0305962" id="Fill-18" fill="#F5F5F5" mask="url(#mask-4)"></path>
                            <path d="M7.5404725,1.03055721 L7.64070478,1.34518973 L7.95755985,1.34771323 C7.99859661,1.34808907 8.01557556,1.40285446 7.98259227,1.42835795 L7.72770271,1.62540596 L7.82331835,1.94159553 C7.83573197,1.9825085 7.7911558,2.01644156 7.75776213,1.9914213 L7.5,1.79861492 L7.24223787,1.99147499 C7.2088442,2.01644156 7.16437062,1.98256219 7.17668165,1.94164922 L7.27229729,1.62545965 L7.01740773,1.42841164 C6.98442444,1.40285446 7.00140339,1.34814276 7.04244015,1.34776692 L7.35929522,1.34524342 L7.4595275,1.0306109 C7.47245408,0.989805319 7.52744333,0.989805319 7.5404725,1.03055721" id="Fill-14" fill="#F5F5F5" mask="url(#mask-4)"></path>
                            <path d="M7.5404725,3.28051817 L7.64070478,3.59516336 L7.95755985,3.59768696 C7.99859661,3.59806282 8.01557556,3.65283041 7.98259227,3.67833493 L7.72770271,3.87539087 L7.82331835,4.19159318 C7.83573197,4.23250779 7.7911558,4.26644222 7.75776213,4.24142095 L7.5,4.04860681 L7.24223787,4.24147464 C7.2088442,4.26644222 7.16437062,4.23256149 7.17668165,4.19164687 L7.27229729,3.87544457 L7.01740773,3.67838862 C6.98442444,3.65283041 7.00140339,3.59811651 7.04244015,3.59774066 L7.35929522,3.59521705 L7.4595275,3.28057186 C7.47245408,3.23981833 7.52744333,3.23981833 7.5404725,3.28051817" id="Fill-15" fill="#F5F5F5" mask="url(#mask-4)"></path>
                            <path d="M7.5404725,5.53051817 L7.64070478,5.84516336 L7.95755985,5.84768696 C7.99859661,5.84806282 8.01557556,5.90283041 7.98259227,5.92833493 L7.72770271,6.12539087 L7.82331835,6.44159318 C7.83573197,6.48250779 7.7911558,6.51644222 7.75776213,6.49142095 L7.5,6.29860681 L7.24223787,6.49147464 C7.2088442,6.51644222 7.16437062,6.48256149 7.17668165,6.44164687 L7.27229729,6.12544457 L7.01740773,5.92838862 C6.98442444,5.90283041 7.00140339,5.84811651 7.04244015,5.84774066 L7.35929522,5.84521705 L7.4595275,5.53057186 C7.47245408,5.48981833 7.52744333,5.48981833 7.5404725,5.53051817" id="Fill-16" fill="#F5F5F5" mask="url(#mask-4)"></path>
                            <path d="M7.5404725,7.78055721 L7.64070478,8.09518973 L7.95755985,8.09771323 C7.99859661,8.09808907 8.01557556,8.15285446 7.98259227,8.17835795 L7.72770271,8.37540596 L7.82331835,8.69159553 C7.83573197,8.7325085 7.7911558,8.76644156 7.75776213,8.7414213 L7.5,8.54861492 L7.24223787,8.74147499 C7.2088442,8.76644156 7.16437062,8.73256219 7.17668165,8.69164922 L7.27229729,8.37545965 L7.01740773,8.17841164 C6.98442444,8.15285446 7.00140339,8.09814276 7.04244015,8.09776692 L7.35929522,8.09524342 L7.4595275,7.7806109 C7.47245408,7.73980532 7.52744333,7.73980532 7.5404725,7.78055721" id="Fill-17" fill="#F5F5F5" mask="url(#mask-4)"></path>
                            <path d="M7.5404725,10.0305962 L7.64070478,10.3452161 L7.95755985,10.3477395 C7.99859661,10.3481153 8.01557556,10.4028785 7.98259227,10.428381 L7.72770271,10.625421 L7.82331835,10.9415979 C7.83573197,10.9825092 7.7911558,11.0164409 7.75776213,10.9914216 L7.5,10.798623 L7.24223787,10.9914753 C7.2088442,11.0164409 7.16437062,10.9825629 7.17668165,10.9416516 L7.27229729,10.6254747 L7.01740773,10.4284347 C6.98442444,10.4028785 7.00140339,10.348169 7.04244015,10.3477932 L7.35929522,10.3452698 L7.4595275,10.0306499 C7.47245408,9.98979231 7.52744333,9.98979231 7.5404725,10.0305962" id="Fill-18" fill="#F5F5F5" mask="url(#mask-4)"></path>
                            <path d="M9.5404725,1.03055721 L9.64070478,1.34518973 L9.95755985,1.34771323 C9.99859661,1.34808907 10.0155756,1.40285446 9.98259227,1.42835795 L9.72770271,1.62540596 L9.82331835,1.94159553 C9.83573197,1.9825085 9.7911558,2.01644156 9.75776213,1.9914213 L9.5,1.79861492 L9.24223787,1.99147499 C9.2088442,2.01644156 9.16437062,1.98256219 9.17668165,1.94164922 L9.27229729,1.62545965 L9.01740773,1.42841164 C8.98442444,1.40285446 9.00140339,1.34814276 9.04244015,1.34776692 L9.35929522,1.34524342 L9.4595275,1.0306109 C9.47245408,0.989805319 9.52744333,0.989805319 9.5404725,1.03055721" id="Fill-14" fill="#F5F5F5" mask="url(#mask-4)"></path>
                            <path d="M9.5404725,3.28051817 L9.64070478,3.59516336 L9.95755985,3.59768696 C9.99859661,3.59806282 10.0155756,3.65283041 9.98259227,3.67833493 L9.72770271,3.87539087 L9.82331835,4.19159318 C9.83573197,4.23250779 9.7911558,4.26644222 9.75776213,4.24142095 L9.5,4.04860681 L9.24223787,4.24147464 C9.2088442,4.26644222 9.16437062,4.23256149 9.17668165,4.19164687 L9.27229729,3.87544457 L9.01740773,3.67838862 C8.98442444,3.65283041 9.00140339,3.59811651 9.04244015,3.59774066 L9.35929522,3.59521705 L9.4595275,3.28057186 C9.47245408,3.23981833 9.52744333,3.23981833 9.5404725,3.28051817" id="Fill-15" fill="#F5F5F5" mask="url(#mask-4)"></path>
                            <path d="M9.5404725,5.53051817 L9.64070478,5.84516336 L9.95755985,5.84768696 C9.99859661,5.84806282 10.0155756,5.90283041 9.98259227,5.92833493 L9.72770271,6.12539087 L9.82331835,6.44159318 C9.83573197,6.48250779 9.7911558,6.51644222 9.75776213,6.49142095 L9.5,6.29860681 L9.24223787,6.49147464 C9.2088442,6.51644222 9.16437062,6.48256149 9.17668165,6.44164687 L9.27229729,6.12544457 L9.01740773,5.92838862 C8.98442444,5.90283041 9.00140339,5.84811651 9.04244015,5.84774066 L9.35929522,5.84521705 L9.4595275,5.53057186 C9.47245408,5.48981833 9.52744333,5.48981833 9.5404725,5.53051817" id="Fill-16" fill="#F5F5F5" mask="url(#mask-4)"></path>
                            <path d="M9.5404725,7.78055721 L9.64070478,8.09518973 L9.95755985,8.09771323 C9.99859661,8.09808907 10.0155756,8.15285446 9.98259227,8.17835795 L9.72770271,8.37540596 L9.82331835,8.69159553 C9.83573197,8.7325085 9.7911558,8.76644156 9.75776213,8.7414213 L9.5,8.54861492 L9.24223787,8.74147499 C9.2088442,8.76644156 9.16437062,8.73256219 9.17668165,8.69164922 L9.27229729,8.37545965 L9.01740773,8.17841164 C8.98442444,8.15285446 9.00140339,8.09814276 9.04244015,8.09776692 L9.35929522,8.09524342 L9.4595275,7.7806109 C9.47245408,7.73980532 9.52744333,7.73980532 9.5404725,7.78055721" id="Fill-17" fill="#F5F5F5" mask="url(#mask-4)"></path>
                            <path d="M9.5404725,10.0305962 L9.64070478,10.3452161 L9.95755985,10.3477395 C9.99859661,10.3481153 10.0155756,10.4028785 9.98259227,10.428381 L9.72770271,10.625421 L9.82331835,10.9415979 C9.83573197,10.9825092 9.7911558,11.0164409 9.75776213,10.9914216 L9.5,10.798623 L9.24223787,10.9914753 C9.2088442,11.0164409 9.16437062,10.9825629 9.17668165,10.9416516 L9.27229729,10.6254747 L9.01740773,10.4284347 C8.98442444,10.4028785 9.00140339,10.348169 9.04244015,10.3477932 L9.35929522,10.3452698 L9.4595275,10.0306499 C9.47245408,9.98979231 9.52744333,9.98979231 9.5404725,10.0305962" id="Fill-18" fill="#F5F5F5" mask="url(#mask-4)"></path>
                            <path d="M11.5404725,1.03055721 L11.6407048,1.34518973 L11.9575598,1.34771323 C11.9985966,1.34808907 12.0155756,1.40285446 11.9825923,1.42835795 L11.7277027,1.62540596 L11.8233184,1.94159553 C11.835732,1.9825085 11.7911558,2.01644156 11.7577621,1.9914213 L11.5,1.79861492 L11.2422379,1.99147499 C11.2088442,2.01644156 11.1643706,1.98256219 11.1766816,1.94164922 L11.2722973,1.62545965 L11.0174077,1.42841164 C10.9844244,1.40285446 11.0014034,1.34814276 11.0424402,1.34776692 L11.3592952,1.34524342 L11.4595275,1.0306109 C11.4724541,0.989805319 11.5274433,0.989805319 11.5404725,1.03055721" id="Fill-14" fill="#F5F5F5" mask="url(#mask-4)"></path>
                            <path d="M11.5404725,3.28051817 L11.6407048,3.59516336 L11.9575598,3.59768696 C11.9985966,3.59806282 12.0155756,3.65283041 11.9825923,3.67833493 L11.7277027,3.87539087 L11.8233184,4.19159318 C11.835732,4.23250779 11.7911558,4.26644222 11.7577621,4.24142095 L11.5,4.04860681 L11.2422379,4.24147464 C11.2088442,4.26644222 11.1643706,4.23256149 11.1766816,4.19164687 L11.2722973,3.87544457 L11.0174077,3.67838862 C10.9844244,3.65283041 11.0014034,3.59811651 11.0424402,3.59774066 L11.3592952,3.59521705 L11.4595275,3.28057186 C11.4724541,3.23981833 11.5274433,3.23981833 11.5404725,3.28051817" id="Fill-15" fill="#F5F5F5" mask="url(#mask-4)"></path>
                            <path d="M11.5404725,5.53051817 L11.6407048,5.84516336 L11.9575598,5.84768696 C11.9985966,5.84806282 12.0155756,5.90283041 11.9825923,5.92833493 L11.7277027,6.12539087 L11.8233184,6.44159318 C11.835732,6.48250779 11.7911558,6.51644222 11.7577621,6.49142095 L11.5,6.29860681 L11.2422379,6.49147464 C11.2088442,6.51644222 11.1643706,6.48256149 11.1766816,6.44164687 L11.2722973,6.12544457 L11.0174077,5.92838862 C10.9844244,5.90283041 11.0014034,5.84811651 11.0424402,5.84774066 L11.3592952,5.84521705 L11.4595275,5.53057186 C11.4724541,5.48981833 11.5274433,5.48981833 11.5404725,5.53051817" id="Fill-16" fill="#F5F5F5" mask="url(#mask-4)"></path>
                            <path d="M11.5404725,7.78055721 L11.6407048,8.09518973 L11.9575598,8.09771323 C11.9985966,8.09808907 12.0155756,8.15285446 11.9825923,8.17835795 L11.7277027,8.37540596 L11.8233184,8.69159553 C11.835732,8.7325085 11.7911558,8.76644156 11.7577621,8.7414213 L11.5,8.54861492 L11.2422379,8.74147499 C11.2088442,8.76644156 11.1643706,8.73256219 11.1766816,8.69164922 L11.2722973,8.37545965 L11.0174077,8.17841164 C10.9844244,8.15285446 11.0014034,8.09814276 11.0424402,8.09776692 L11.3592952,8.09524342 L11.4595275,7.7806109 C11.4724541,7.73980532 11.5274433,7.73980532 11.5404725,7.78055721" id="Fill-17" fill="#F5F5F5" mask="url(#mask-4)"></path>
                            <path d="M11.5404725,10.0305962 L11.6407048,10.3452161 L11.9575598,10.3477395 C11.9985966,10.3481153 12.0155756,10.4028785 11.9825923,10.428381 L11.7277027,10.625421 L11.8233184,10.9415979 C11.835732,10.9825092 11.7911558,11.0164409 11.7577621,10.9914216 L11.5,10.798623 L11.2422379,10.9914753 C11.2088442,11.0164409 11.1643706,10.9825629 11.1766816,10.9416516 L11.2722973,10.6254747 L11.0174077,10.4284347 C10.9844244,10.4028785 11.0014034,10.348169 11.0424402,10.3477932 L11.3592952,10.3452698 L11.4595275,10.0306499 C11.4724541,9.98979231 11.5274433,9.98979231 11.5404725,10.0305962" id="Fill-18" fill="#F5F5F5" mask="url(#mask-4)"></path>
                            <path d="M13.5404725,1.03055721 L13.6407048,1.34518973 L13.9575598,1.34771323 C13.9985966,1.34808907 14.0155756,1.40285446 13.9825923,1.42835795 L13.7277027,1.62540596 L13.8233184,1.94159553 C13.835732,1.9825085 13.7911558,2.01644156 13.7577621,1.9914213 L13.5,1.79861492 L13.2422379,1.99147499 C13.2088442,2.01644156 13.1643706,1.98256219 13.1766816,1.94164922 L13.2722973,1.62545965 L13.0174077,1.42841164 C12.9844244,1.40285446 13.0014034,1.34814276 13.0424402,1.34776692 L13.3592952,1.34524342 L13.4595275,1.0306109 C13.4724541,0.989805319 13.5274433,0.989805319 13.5404725,1.03055721" id="Fill-14" fill="#F5F5F5" mask="url(#mask-4)"></path>
                            <path d="M13.5404725,3.28051817 L13.6407048,3.59516336 L13.9575598,3.59768696 C13.9985966,3.59806282 14.0155756,3.65283041 13.9825923,3.67833493 L13.7277027,3.87539087 L13.8233184,4.19159318 C13.835732,4.23250779 13.7911558,4.26644222 13.7577621,4.24142095 L13.5,4.04860681 L13.2422379,4.24147464 C13.2088442,4.26644222 13.1643706,4.23256149 13.1766816,4.19164687 L13.2722973,3.87544457 L13.0174077,3.67838862 C12.9844244,3.65283041 13.0014034,3.59811651 13.0424402,3.59774066 L13.3592952,3.59521705 L13.4595275,3.28057186 C13.4724541,3.23981833 13.5274433,3.23981833 13.5404725,3.28051817" id="Fill-15" fill="#F5F5F5" mask="url(#mask-4)"></path>
                            <path d="M13.5404725,5.53051817 L13.6407048,5.84516336 L13.9575598,5.84768696 C13.9985966,5.84806282 14.0155756,5.90283041 13.9825923,5.92833493 L13.7277027,6.12539087 L13.8233184,6.44159318 C13.835732,6.48250779 13.7911558,6.51644222 13.7577621,6.49142095 L13.5,6.29860681 L13.2422379,6.49147464 C13.2088442,6.51644222 13.1643706,6.48256149 13.1766816,6.44164687 L13.2722973,6.12544457 L13.0174077,5.92838862 C12.9844244,5.90283041 13.0014034,5.84811651 13.0424402,5.84774066 L13.3592952,5.84521705 L13.4595275,5.53057186 C13.4724541,5.48981833 13.5274433,5.48981833 13.5404725,5.53051817" id="Fill-16" fill="#F5F5F5" mask="url(#mask-4)"></path>
                            <path d="M13.5404725,7.78055721 L13.6407048,8.09518973 L13.9575598,8.09771323 C13.9985966,8.09808907 14.0155756,8.15285446 13.9825923,8.17835795 L13.7277027,8.37540596 L13.8233184,8.69159553 C13.835732,8.7325085 13.7911558,8.76644156 13.7577621,8.7414213 L13.5,8.54861492 L13.2422379,8.74147499 C13.2088442,8.76644156 13.1643706,8.73256219 13.1766816,8.69164922 L13.2722973,8.37545965 L13.0174077,8.17841164 C12.9844244,8.15285446 13.0014034,8.09814276 13.0424402,8.09776692 L13.3592952,8.09524342 L13.4595275,7.7806109 C13.4724541,7.73980532 13.5274433,7.73980532 13.5404725,7.78055721" id="Fill-17" fill="#F5F5F5" mask="url(#mask-4)"></path>
                            <path d="M13.5404725,10.0305962 L13.6407048,10.3452161 L13.9575598,10.3477395 C13.9985966,10.3481153 14.0155756,10.4028785 13.9825923,10.428381 L13.7277027,10.625421 L13.8233184,10.9415979 C13.835732,10.9825092 13.7911558,11.0164409 13.7577621,10.9914216 L13.5,10.798623 L13.2422379,10.9914753 C13.2088442,11.0164409 13.1643706,10.9825629 13.1766816,10.9416516 L13.2722973,10.6254747 L13.0174077,10.4284347 C12.9844244,10.4028785 13.0014034,10.348169 13.0424402,10.3477932 L13.3592952,10.3452698 L13.4595275,10.0306499 C13.4724541,9.98979231 13.5274433,9.98979231 13.5404725,10.0305962" id="Fill-18" fill="#F5F5F5" mask="url(#mask-4)"></path>
                            <path d="M15.5404725,1.03055721 L15.6407048,1.34518973 L15.9575598,1.34771323 C15.9985966,1.34808907 16.0155756,1.40285446 15.9825923,1.42835795 L15.7277027,1.62540596 L15.8233184,1.94159553 C15.835732,1.9825085 15.7911558,2.01644156 15.7577621,1.9914213 L15.5,1.79861492 L15.2422379,1.99147499 C15.2088442,2.01644156 15.1643706,1.98256219 15.1766816,1.94164922 L15.2722973,1.62545965 L15.0174077,1.42841164 C14.9844244,1.40285446 15.0014034,1.34814276 15.0424402,1.34776692 L15.3592952,1.34524342 L15.4595275,1.0306109 C15.4724541,0.989805319 15.5274433,0.989805319 15.5404725,1.03055721" id="Fill-14" fill="#F5F5F5" mask="url(#mask-4)"></path>
                            <path d="M15.5404725,3.28051817 L15.6407048,3.59516336 L15.9575598,3.59768696 C15.9985966,3.59806282 16.0155756,3.65283041 15.9825923,3.67833493 L15.7277027,3.87539087 L15.8233184,4.19159318 C15.835732,4.23250779 15.7911558,4.26644222 15.7577621,4.24142095 L15.5,4.04860681 L15.2422379,4.24147464 C15.2088442,4.26644222 15.1643706,4.23256149 15.1766816,4.19164687 L15.2722973,3.87544457 L15.0174077,3.67838862 C14.9844244,3.65283041 15.0014034,3.59811651 15.0424402,3.59774066 L15.3592952,3.59521705 L15.4595275,3.28057186 C15.4724541,3.23981833 15.5274433,3.23981833 15.5404725,3.28051817" id="Fill-15" fill="#F5F5F5" mask="url(#mask-4)"></path>
                            <path d="M15.5404725,5.53051817 L15.6407048,5.84516336 L15.9575598,5.84768696 C15.9985966,5.84806282 16.0155756,5.90283041 15.9825923,5.92833493 L15.7277027,6.12539087 L15.8233184,6.44159318 C15.835732,6.48250779 15.7911558,6.51644222 15.7577621,6.49142095 L15.5,6.29860681 L15.2422379,6.49147464 C15.2088442,6.51644222 15.1643706,6.48256149 15.1766816,6.44164687 L15.2722973,6.12544457 L15.0174077,5.92838862 C14.9844244,5.90283041 15.0014034,5.84811651 15.0424402,5.84774066 L15.3592952,5.84521705 L15.4595275,5.53057186 C15.4724541,5.48981833 15.5274433,5.48981833 15.5404725,5.53051817" id="Fill-16" fill="#F5F5F5" mask="url(#mask-4)"></path>
                            <path d="M15.5404725,7.78055721 L15.6407048,8.09518973 L15.9575598,8.09771323 C15.9985966,8.09808907 16.0155756,8.15285446 15.9825923,8.17835795 L15.7277027,8.37540596 L15.8233184,8.69159553 C15.835732,8.7325085 15.7911558,8.76644156 15.7577621,8.7414213 L15.5,8.54861492 L15.2422379,8.74147499 C15.2088442,8.76644156 15.1643706,8.73256219 15.1766816,8.69164922 L15.2722973,8.37545965 L15.0174077,8.17841164 C14.9844244,8.15285446 15.0014034,8.09814276 15.0424402,8.09776692 L15.3592952,8.09524342 L15.4595275,7.7806109 C15.4724541,7.73980532 15.5274433,7.73980532 15.5404725,7.78055721" id="Fill-17" fill="#F5F5F5" mask="url(#mask-4)"></path>
                            <path d="M15.5404725,10.0305962 L15.6407048,10.3452161 L15.9575598,10.3477395 C15.9985966,10.3481153 16.0155756,10.4028785 15.9825923,10.428381 L15.7277027,10.625421 L15.8233184,10.9415979 C15.835732,10.9825092 15.7911558,11.0164409 15.7577621,10.9914216 L15.5,10.798623 L15.2422379,10.9914753 C15.2088442,11.0164409 15.1643706,10.9825629 15.1766816,10.9416516 L15.2722973,10.6254747 L15.0174077,10.4284347 C14.9844244,10.4028785 15.0014034,10.348169 15.0424402,10.3477932 L15.3592952,10.3452698 L15.4595275,10.0306499 C15.4724541,9.98979231 15.5274433,9.98979231 15.5404725,10.0305962" id="Fill-18" fill="#F5F5F5" mask="url(#mask-4)"></path>
                        </g>
                    </g>
                </g>
            </g>
        </g>
    </g>
</svg>